# xmcd CD database file
#
# Track frame offsets:
#	187
#	17257
#	28827
#	40207
#	49690
#	64167
#	74107
#	89555
#	103205
#	120327
#	135680
#	145735
#
# Disc length: 2094 seconds
#
# Revision: 0
# Processed by: cddbd v1.5.2PL0 Copyright (c) Steve Scherf et al.
# Submitted via: CDex 1.51
#
DISCID=ab082c0c
DTITLE=Rita Reys - Relax with Rita and PIm
DYEAR=1900
DGENRE=Jazz
TTITLE0=Desafinado
TTITLE1=Bluesette
TTITLE2=The boy from Ipanema
TTITLE3=My funny valentine
TTITLE4=Shadow of your smile
TTITLE5=Love for sale
TTITLE6=Zon in Scheveninge
TTITLE7=Yesterday
TTITLE8=Summertime
TTITLE9=Waltz for Debby
TTITLE10=Can't buy me Love
TTITLE11=Fly me to the moon
EXTD=
EXTT0=
EXTT1=
EXTT2=
EXTT3=
EXTT4=
EXTT5=
EXTT6=
EXTT7=
EXTT8=
EXTT9=
EXTT10=
EXTT11=
PLAYORDER=
